<?xml version="1.0" encoding="UTF-8"?>
<svg width="29px" height="30px" viewBox="0 0 29 30" version="1.1" xmlns="http://www.w3.org/2000/svg" xmlns:xlink="http://www.w3.org/1999/xlink">
    <!-- Generator: Sketch 52.5 (67469) - http://www.bohemiancoding.com/sketch -->
    <title>Graphics / Custom Icons / Settings / Notification</title>
    <desc>Created with Sketch.</desc>
    <g id="iPhone-XS" stroke="none" stroke-width="1" fill="none" fill-rule="evenodd">
        <g id="Settings" transform="translate(-16.000000, -554.000000)">
            <g id="Section-#2" transform="translate(0.000000, 547.000000)">
                <g id="Row">
                    <g id="Option" transform="translate(16.000000, 7.000000)">
                        <g id="Graphics-/-Custom-Icons-/-Settings-/-Notification" transform="translate(0.000000, 0.500000)">
                            <g id="Notification">
                                <rect id="Shape" fill="#FF3B30" x="0" y="0" width="29" height="29" rx="6"></rect>
                                <path d="M15.6497229,7 C15.5709134,7.32266982 15.5219261,7.65703196 15.5058476,8 L9.00008783,8 C7.89559044,8 7,8.8956531 7,10.0000878 L7,19.9999122 C7,21.1044096 7.8956531,22 9.00008783,22 L18.9999122,22 C20.1044096,22 21,21.1043469 21,19.9999122 L21,13.4941524 C21.342968,13.4780739 21.6773302,13.4290866 22,13.3502771 L22,19.9999122 C22,21.656511 20.6568149,23 18.9999122,23 L9.00008783,23 C7.34348897,23 6,21.6568149 6,19.9999122 L6,10.0000878 C6,8.34348897 7.34318507,7 9.00008783,7 L15.6497229,7 Z M20.75,12 C18.6789322,12 17,10.3210678 17,8.25 C17,6.17893219 18.6789322,4.5 20.75,4.5 C22.8210678,4.5 24.5,6.17893219 24.5,8.25 C24.5,10.3210678 22.8210678,12 20.75,12 Z" id="Icon" fill="#FFFFFF" fill-rule="nonzero"></path>
                            </g>
                        </g>
                    </g>
                </g>
            </g>
        </g>
    </g>
</svg>