<?xml version="1.0" encoding="UTF-8"?>
<svg width="29px" height="30px" viewBox="0 0 29 30" version="1.1" xmlns="http://www.w3.org/2000/svg" xmlns:xlink="http://www.w3.org/1999/xlink">
    <!-- Generator: Sketch 52.5 (67469) - http://www.bohemiancoding.com/sketch -->
    <title>Icon</title>
    <desc>Created with Sketch.</desc>
    <g id="iPhone-XS" stroke="none" stroke-width="1" fill="none" fill-rule="evenodd">
        <g id="Settings" transform="translate(-16.000000, -598.000000)">
            <g id="Section-#2" transform="translate(0.000000, 547.000000)">
                <g id="Row" transform="translate(0.000000, 44.000000)">
                    <g id="Option" transform="translate(16.000000, 7.000000)">
                        <g id="Icon" transform="translate(0.000000, 0.500000)">
                            <g id="Graphics-/-Custom-Icons-/-Settings-/-Control-Center">
                                <g id="Control-Center">
                                    <rect id="Shape" fill="#8E8E93" x="0" y="0" width="29" height="29" rx="6"></rect>
                                    <path d="M6.5,20.25 C6.5,17.6260706 8.62503274,15.5 11.2463935,15.5 L17.7536065,15.5 C20.3753235,15.5 22.5,17.6266474 22.5,20.25 C22.5,22.8739294 20.3749673,25 17.7536065,25 L11.2463935,25 C8.62467647,25 6.5,22.8733526 6.5,20.25 Z M17.75,23.5 C19.5449254,23.5 21,22.0449254 21,20.25 C21,18.4550746 19.5449254,17 17.75,17 C15.9550746,17 14.5,18.4550746 14.5,20.25 C14.5,22.0449254 15.9550746,23.5 17.75,23.5 Z M11.2463935,13.5 C8.62467647,13.5 6.5,11.3733526 6.5,8.75 C6.5,6.12607064 8.62503274,4 11.2463935,4 L17.7536065,4 C20.3753235,4 22.5,6.12664744 22.5,8.75 C22.5,11.3739294 20.3749673,13.5 17.7536065,13.5 L11.2463935,13.5 Z M17.7536065,5 L11.2463935,5 C9.17726972,5 7.5,6.6784034 7.5,8.75 C7.5,10.8213725 9.17726598,12.5 11.2463935,12.5 L17.7536065,12.5 C19.8227303,12.5 21.5,10.8215966 21.5,8.75 C21.5,6.67862748 19.822734,5 17.7536065,5 Z M11.25,11.5 C9.73121694,11.5 8.5,10.2687831 8.5,8.75 C8.5,7.23121694 9.73121694,6 11.25,6 C12.7687831,6 14,7.23121694 14,8.75 C14,10.2687831 12.7687831,11.5 11.25,11.5 Z" id="Icon" fill="#FFFFFF"></path>
                                </g>
                            </g>
                        </g>
                    </g>
                </g>
            </g>
        </g>
    </g>
</svg>