<?xml version="1.0" encoding="UTF-8"?>
<svg width="29px" height="30px" viewBox="0 0 29 30" version="1.1" xmlns="http://www.w3.org/2000/svg" xmlns:xlink="http://www.w3.org/1999/xlink">
    <!-- Generator: Sketch 52.5 (67469) - http://www.bohemiancoding.com/sketch -->
    <title>Graphics / Custom Icons / Settings / Cellular</title>
    <desc>Created with Sketch.</desc>
    <defs>
        <linearGradient x1="50%" y1="0%" x2="50%" y2="100%" id="linearGradient-1">
            <stop stop-color="#4CD964" offset="0%"></stop>
            <stop stop-color="#4CD964" offset="100%"></stop>
        </linearGradient>
    </defs>
    <g id="iPhone-XS" stroke="none" stroke-width="1" fill="none" fill-rule="evenodd">
        <g id="Settings" transform="translate(-16.000000, -430.000000)">
            <g id="Section-#1" transform="translate(0.000000, 290.000000)">
                <g id="Row" transform="translate(0.000000, 133.000000)">
                    <g id="Option" transform="translate(16.000000, 7.000000)">
                        <g id="Graphics-/-Custom-Icons-/-Settings-/-Cellular" transform="translate(0.000000, 0.500000)">
                            <g id="Cellular">
                                <rect id="Shape" fill="url(#linearGradient-1)" x="0" y="0" width="29" height="29" rx="6"></rect>
                                <path d="M8.61300144,7.27478114 C7.22432836,8.39451597 6.42832885,10.0802468 6.42832885,11.8979233 C6.42832885,13.7011794 7.21423417,15.3775371 8.58416087,16.4972719 C8.88914982,16.7460218 8.93529472,17.1980976 8.6879869,17.5038076 C8.55171524,17.6718038 8.34983131,17.7691407 8.13280607,17.7691407 C7.96913588,17.7691407 7.80907076,17.7114596 7.68217229,17.6083546 C5.97769506,16.2146344 5,14.1337879 5,11.8979233 C5,9.64331232 5.99067331,7.55092952 7.71894401,6.15793037 C7.8674729,6.03824203 8.0520525,5.98416598 8.24384224,6.00435437 C8.43418995,6.02526378 8.60362825,6.11899561 8.72331659,6.26896653 C8.96846137,6.57683953 8.91943241,7.02819433 8.61300144,7.27478114 Z M11.5554598,9.30335419 C10.7782066,9.9299154 10.33262,10.8737228 10.33262,11.8925157 C10.33262,12.9026564 10.7724385,13.8414167 11.5395975,14.4686989 C11.8431444,14.7174487 11.8900103,15.1695245 11.6419815,15.4752345 C11.5064308,15.6432308 11.3038259,15.7405677 11.0882427,15.7405677 C10.9238515,15.7405677 10.7637864,15.6828866 10.6376089,15.5797815 C9.53589943,14.679235 8.90429111,13.3352648 8.90429111,11.8925157 C8.90429111,10.4367883 9.54527261,9.08632896 10.6614024,8.18650341 C10.8092103,8.06681508 10.9966739,8.011297 11.1848586,8.03292742 C11.3752063,8.05311581 11.5453656,8.14684764 11.6650539,8.29681857 C11.9109197,8.60541258 11.8611698,9.05676738 11.5554598,9.30335419 Z M21.4697636,6.15771406 C23.1973133,7.55143423 24.1887076,9.64309601 24.1887076,11.897707 C24.1887076,14.1335716 23.2110125,16.2151391 21.5065353,17.6081383 C21.3796368,17.7112433 21.2195717,17.7689244 21.0559015,17.7689244 C20.8388763,17.7689244 20.6369923,17.6723085 20.5014417,17.5035913 C20.2534129,17.1978813 20.2995578,16.7458055 20.6045467,16.4970556 C21.9751944,15.3773208 22.7610998,13.7009631 22.7610998,11.897707 C22.7610998,10.0800305 21.9643792,8.39502068 20.5757061,7.27456484 C20.2692752,7.02797803 20.2202462,6.57662323 20.465391,6.26875023 C20.5843583,6.1187793 20.7545176,6.02504748 20.9448653,6.00413807 C21.1366551,5.98394968 21.3212347,6.03802573 21.4697636,6.15771406 Z M18.5276657,8.18664762 C19.6437955,9.08647316 20.284056,10.4369325 20.284056,11.8926599 C20.284056,13.335409 19.6524477,14.6793792 18.5514592,15.5792047 C18.4245607,15.6830308 18.2644956,15.7407119 18.1008254,15.7407119 C17.8845212,15.7407119 17.6826372,15.643375 17.5463656,15.4753787 C17.2990578,15.1696688 17.3452027,14.7175929 17.6494706,14.4681221 C18.4166296,13.8415609 18.8564481,12.9028006 18.8564481,11.8926599 C18.8564481,10.873867 18.4101404,9.93005961 17.6336083,9.30349839 C17.3271773,9.05691158 17.2781484,8.60555678 17.5232931,8.29696277 C17.6429815,8.14699184 17.8138618,8.05326002 18.0034885,8.03307162 C18.1923942,8.0114412 18.3791368,8.06695928 18.5276657,8.18664762 Z M14.5944619,9.67056665 C15.7617837,9.67056665 16.7077541,10.6165371 16.7077541,11.7838588 C16.7077541,12.6815213 16.1453632,13.4436332 15.3558528,13.7493432 L15.3558528,23.2342831 C15.3558528,23.6567973 15.0148131,24 14.5944619,24 C14.1741107,24 13.8330711,23.6567973 13.8330711,23.2342831 L13.8330711,13.7493432 C13.0435607,13.4429122 12.4811697,12.6815213 12.4811697,11.7838588 C12.4811697,10.6165371 13.4271402,9.67056665 14.5944619,9.67056665 Z" id="Icon" fill="#FFFFFF"></path>
                            </g>
                        </g>
                    </g>
                </g>
            </g>
        </g>
    </g>
</svg>